<?xml version="1.0" encoding="UTF-8"?>
<svg id="Layer_1" data-name="Layer 1" xmlns="http://www.w3.org/2000/svg" viewBox="0 0 2662.31 1206">
  <defs>
    <style>
      .cls-1 {
        fill: #fff;
      }

      .cls-2 {
        fill: #3cc8e3;
      }

      .cls-3 {
        fill: #828282;
        opacity: .34;
      }
    </style>
  </defs>
  <path class="cls-3" d="m2396.35,1206c-73.65,0-136.81-24.82-187.73-73.76-.03-.03-.07-.06-.1-.1v60.27h-480.28v-122.17c-36.1,39.09-84.08,70.89-143.1,94.78-67.17,27.19-150.34,40.97-247.17,40.97-69.37,0-138.74-7.54-206.16-22.41-70.82-15.62-127.66-36.02-173.77-62.37l-66.35-37.92,7.83-18.82c-33.87,32.47-73.14,60.09-117.5,82.57-77.12,39.11-165.72,58.95-263.34,58.95s-186.17-19.88-262.9-59.07c-78.32-39.97-141.03-96.15-186.39-166.97C23.35,908.14,0,825.22,0,733.52s23.35-174.6,69.39-246.46c45.46-70.95,108.32-126.97,186.83-166.5,76.63-38.59,164.94-58.16,262.45-58.16s185.87,19.53,262.92,58.06c72.35,36.17,131.19,86.19,175.19,148.85,8.04-15.89,17.59-31.22,28.6-45.91,37.95-50.59,93.22-90.95,164.29-119.94,66.76-27.25,148.4-41.06,242.63-41.06,59.27,0,119.38,5.5,178.65,16.36,59.43,10.91,112.29,28.02,157.28,50.89V11.04h480.28v742.99c.48-.45.95-.89,1.44-1.33,50.76-46.76,113.48-70.46,186.4-70.46s135.6,23.7,186.38,70.44c52.81,48.68,79.58,112.63,79.58,190.08s-26.33,139.63-78.24,189.5c-50.94,48.93-114.09,73.74-187.71,73.74ZM518.67,674.75c-8.95,0-13.74,2.26-16.57,3.95-3.97,2.38-7.54,6.75-10.92,13.38-2.54,4.99-6.82,17.01-6.82,41.43,0,17.98,2.58,32.76,7.47,42.73,2.3,4.71,5.95,10.85,10.24,13.42,2.85,1.71,7.66,3.98,16.6,3.98s13.76-2.27,16.61-3.98c4.29-2.57,7.92-8.7,10.21-13.38,4.9-10,7.49-24.79,7.49-42.77,0-24.43-4.28-36.46-6.84-41.46-3.37-6.6-6.94-10.97-10.91-13.35-2.82-1.69-7.63-3.95-16.57-3.95Zm1178.13-42.77c11.18,8.06,21.67,16.95,31.43,26.61v-102.15l-31.43,75.53Z"/>
  <path d="m2305.62,1146.9c-70.69,0-131.31-23.82-180.18-70.79-.03-.03-.06-.06-.1-.09v57.84h-460.97v-117.26c-34.65,37.52-80.7,68.04-137.35,90.97-64.47,26.09-144.29,39.33-237.23,39.33-66.59,0-133.16-7.24-197.87-21.51-67.97-14.99-122.52-34.57-166.78-59.86l-63.68-36.39,7.52-18.07c-32.51,31.17-70.2,57.67-112.78,79.25-74.02,37.54-159.06,56.58-252.75,56.58s-178.68-19.08-252.33-56.7c-75.17-38.36-135.36-92.28-178.89-160.25C28.05,861.02,5.64,781.44,5.64,693.42s22.41-167.58,66.6-236.55c43.63-68.1,103.96-121.87,179.32-159.8,73.55-37.04,158.3-55.82,251.9-55.82s178.4,18.75,252.34,55.72c69.44,34.72,125.92,82.72,168.15,142.87,7.72-15.25,16.88-29.97,27.45-44.06,36.42-48.56,89.48-87.29,157.69-115.12,64.08-26.15,142.43-39.41,232.87-39.41,56.89,0,114.58,5.28,171.46,15.7,57.04,10.47,107.77,26.89,150.95,48.84V0h460.97v713.11c.46-.43.92-.85,1.38-1.28,48.72-44.88,108.91-67.63,178.9-67.63s130.15,22.75,178.88,67.61c50.69,46.72,76.38,108.1,76.38,182.44s-25.27,134.02-75.1,181.88c-48.89,46.96-109.51,70.78-180.17,70.78ZM503.46,637.02c-8.59,0-13.19,2.17-15.9,3.8-3.81,2.28-7.23,6.48-10.48,12.84-2.44,4.78-6.55,16.32-6.55,39.77,0,17.26,2.48,31.44,7.17,41.01,2.21,4.52,5.71,10.41,9.83,12.88,2.74,1.64,7.35,3.82,15.94,3.82s13.21-2.18,15.94-3.82c4.12-2.47,7.61-8.35,9.8-12.84,4.7-9.6,7.19-23.79,7.19-41.05,0-23.44-4.11-35-6.56-39.8-3.24-6.34-6.66-10.53-10.47-12.81-2.71-1.62-7.32-3.8-15.9-3.8Zm1130.75-41.05c10.73,7.74,20.8,16.26,30.17,25.54v-98.04l-30.17,72.5Z"/>
  <path class="cls-1" d="m2465.2,732.78c-43.31-39.86-97-60.08-159.58-60.08s-116.3,20.22-159.59,60.09c-21.59,19.89-37.98,42.92-49.19,68.87V28.5h-403.97v324.75l-34.36-18.37c-42.18-22.55-92.72-39.34-150.23-49.9-55.19-10.11-111.15-15.24-166.33-15.24-86.73,0-161.46,12.55-222.11,37.3-63.37,25.85-112.37,61.46-145.65,105.83-21.32,28.43-36.13,59.26-44.35,92.14-5.6-11.09-11.68-21.94-18.36-32.5-40.45-63.91-97.12-114.39-168.43-150.05-69.96-34.98-150.57-52.71-239.6-52.71s-169.54,17.76-239.08,52.78c-70.73,35.61-127.3,85.98-168.14,149.72-41.21,64.3-62.1,138.71-62.1,221.17s20.9,156.89,62.09,221.16c40.77,63.66,97.25,114.21,167.86,150.24,69.6,35.55,150.13,53.58,239.36,53.58s169.87-18,239.86-53.5c71.21-36.09,127.79-86.75,168.17-150.57,35.13-55.49,55.26-118.52,60.1-187.73,9.72,12.53,20.53,23.93,32.46,34.06l-106.61,256.21,41.85,23.91c41.72,23.84,93.66,42.41,158.78,56.77,62.7,13.83,127.2,20.84,191.73,20.84,89.26,0,165.48-12.53,226.54-37.24,64.11-25.95,113.3-61.99,146.22-107.13,12.35-16.93,22.44-34.49,30.32-52.59v183.92h403.97v-119.02c11.06,25.74,27.17,48.89,48.35,69.22,43.38,41.7,97.36,62.84,160.43,62.84s117.02-21.14,160.42-62.83c44.02-42.28,66.34-96.56,66.34-161.32s-22.6-120.37-67.18-161.47Zm-2013.51-92.09c5.75-11.26,12.68-19.2,21.2-24.31,8.81-5.29,18.81-7.86,30.57-7.86s21.76,2.58,30.57,7.86c8.52,5.11,15.45,13.06,21.19,24.29,6.42,12.58,9.68,30.33,9.68,52.75s-3.39,39.91-10.09,53.58c-5.74,11.72-12.53,19.83-20.75,24.76-8.84,5.3-18.85,7.87-30.6,7.87s-21.76-2.57-30.59-7.87c-8.22-4.93-15.01-13.03-20.76-24.78-6.69-13.65-10.08-31.66-10.08-53.55s3.26-40.18,9.67-52.73Zm1232.68,54.15c-19.15-34.31-45-62.09-76.85-82.58-2.88-1.85-5.78-3.65-8.72-5.42l94.07-226.06v331.33c-2.6-5.96-5.41-11.73-8.5-17.28Z"/>
  <g>
    <path class="cls-2" d="m718.63,371.32c-62.59-31.3-134.32-46.95-215.17-46.95s-152.37,15.65-214.52,46.95c-62.17,31.3-111.07,74.78-146.71,130.41-35.66,55.65-53.47,119.54-53.47,191.7s17.81,136.07,53.47,191.7c35.64,55.65,84.54,99.33,146.71,131.06,62.15,31.75,133.66,47.6,214.52,47.6s152.57-15.85,215.17-47.6c62.6-31.72,111.5-75.41,146.71-131.06,35.21-55.63,52.81-119.52,52.81-191.7s-17.6-136.05-52.81-191.7c-35.21-55.63-84.11-99.11-146.71-130.41Zm-114.76,399.69c-10.43,21.31-24.35,37.17-41.73,47.6-17.4,10.43-36.96,15.65-58.68,15.65s-41.3-5.22-58.68-15.65c-17.4-10.43-31.3-26.28-41.73-47.6-10.43-21.29-15.65-47.15-15.65-77.59s5.22-57.15,15.65-77.59c10.43-20.42,24.33-35.86,41.73-46.29,17.38-10.43,36.94-15.65,58.68-15.65s41.28,5.22,58.68,15.65c17.38,10.43,31.3,25.88,41.73,46.29,10.43,20.44,15.65,46.29,15.65,77.59s-5.22,56.3-15.65,77.59Z"/>
    <path class="cls-2" d="m1577.99,658.21c-24.35-15.65-51.08-27.59-80.2-35.86-29.14-8.25-58.25-14.34-87.37-18.26-29.14-3.91-55.87-7.17-80.2-9.78-24.35-2.61-43.91-6.52-58.68-11.74-14.79-5.22-22.17-13.04-22.17-23.47,0-8.68,6.72-16.5,20.21-23.47,13.47-6.95,38.9-10.43,76.29-10.43,30.42,0,63.25,3.71,98.46,11.08,35.21,7.4,71.07,21.09,107.59,41.08l80.85-194.3c-37.39-19.99-82.16-34.76-134.32-44.34-52.16-9.56-104.32-14.34-156.48-14.34-80,0-147.15,11.08-201.48,33.25-54.34,22.17-95.2,51.51-122.58,88.02-27.39,36.51-41.08,77.39-41.08,122.58,0,40.87,7.38,74.56,22.17,101.06,14.77,26.53,34.33,47.6,58.68,63.25,24.33,15.65,51.28,27.39,80.85,35.21,29.55,7.82,58.89,13.69,88.03,17.61,29.12,3.91,55.85,7.17,80.2,9.78,24.33,2.61,43.89,6.32,58.68,11.08,14.77,4.79,22.17,12.39,22.17,22.82s-6.32,18.7-18.91,24.78c-12.61,6.09-36.74,9.13-72.38,9.13-42.6,0-86.29-5.64-131.06-16.95-44.79-11.29-84.11-26.94-118.02-46.95l-80.85,194.3c36.51,20.87,84.31,37.82,143.45,50.86,59.11,13.04,119.1,19.56,179.96,19.56,82.58,0,151.27-11.08,206.04-33.25,54.77-22.17,95.62-51.71,122.58-88.68,26.94-36.94,40.43-76.72,40.43-119.32s-7.4-74.53-22.17-101.06c-14.79-26.51-34.35-47.6-58.68-63.25Z"/>
    <rect class="cls-2" x="1747.5" y="83.13" width="294.72" height="967.61"/>
    <path class="cls-2" d="m2428.2,772.97c-33.05-30.42-73.9-45.64-122.58-45.64s-89.55,15.22-122.58,45.64c-33.05,30.44-49.55,70.87-49.55,121.28s16.5,90.2,49.55,121.93c33.03,31.75,73.88,47.6,122.58,47.6s89.53-15.85,122.58-47.6c33.03-31.72,49.55-72.37,49.55-121.93s-16.53-90.84-49.55-121.28Z"/>
  </g>
</svg>