<?xml version="1.0" encoding="UTF-8"?>
<svg id="Layer_1" data-name="Layer 1" xmlns="http://www.w3.org/2000/svg" viewBox="0 0 1724.31 2068.81">
  <defs>
    <style>
      .cls-1 {
        fill: #fff;
      }

      .cls-2 {
        fill: #3cc8e3;
      }

      .cls-3 {
        fill: #828282;
        opacity: .34;
      }
    </style>
  </defs>
  <path class="cls-3" d="m1068.77,2068.81c-8.38,0-16.92-.5-25.4-1.5-42.73-5-80.55-20.27-112.4-45.37-25.68-20.25-45.75-46.78-59.65-78.87-2.05-4.74-3.83-9.39-5.39-13.86-12.22,1.81-24.12,2.69-35.99,2.69-2.91,0-5.92-.06-8.93-.17-35.08-1.36-68.3-8.74-98.98-21.97-4.09,2.9-7.67,4.98-10.13,6.41l-.64.37-.14.08c-32.12,18.62-60.27,30.92-88.55,38.68-25.66,7.05-56.5,14.25-90.65,14.25-1.24,0-2.49,0-3.74-.03-37.46-.57-71.77-6.58-104.8-18.39-49.18-17.57-91.19-47.87-124.85-90.05-23.37-29.3-39.53-63.65-48.03-102.1-3.22-14.61-5.17-30.05-5.93-47.1-23.74-2-47.67-7.82-72.63-17.62-31.11-12.22-59.1-30.48-83.21-54.28-34.87-34.43-56.03-77.05-64.69-130.31-4.83-29.73-4.14-57.25,2.1-84.14,4.84-20.79,11.83-45.43,27.07-70.59.73-1.21,1.54-2.55,2.43-3.99-2.51-5.87-4.77-11.99-6.83-18.46-10.65-33.47-10.76-67.7-.31-101.74,8.29-26.98,22.09-50.51,41.04-69.94,18.7-19.18,41.88-33.79,68.88-43.43,19.01-6.79,38.51-10.23,57.96-10.23,10.69,0,21.32,1.03,31.84,3.07-.24-.8-2.6-8.75-2.6-8.75-2.1-7.03-4.2-14.12-6.3-21.22-5.05-17.03-10.43-35.16-15.8-52.95-1.2-3.98-2.43-7.96-3.66-11.93l-.16-.53c-3.24-10.5-6.6-21.38-9.71-32.9-1.56-5.79-3.39-11.8-5.62-19.06-2.41-7.86-5.15-16.76-7.68-26.35-1.98-7.47-4.51-15.42-7.2-23.83-1.72-5.38-3.84-12.01-5.83-18.69-2.72-9.17-4.45-18.99-5.15-29.2-1.75-25.53,6.57-49.6,23.43-67.76,16.8-18.13,40.13-28.23,65.67-28.42,6.26-.04,12.77-.26,19.67-.48l.48-.02c8.8-.29,17.93-.6,27.6-.6,4.59,0,8.71.06,12.62.19,24.13.77,48.16.87,68.48.87,8.74,0,17.46-.02,26.19-.04l17.63-.04c9.82,0,19.36,0,28.64-.13,54.79-.71,107.93-.81,152.69-.81,3.37,0,6.73,0,10.1,0,2.68-4.75,5.52-9.62,8.66-14.66,7.98-12.81,16.23-24.94,23.95-36.13,7.12-10.31,14.72-20.09,22.77-29.3-7.3.31-14.72.47-22.11.47-42.04,0-84.02-4.98-128.34-15.24-24.36-5.63-55.91-15.22-83.9-39.69-19.45-17.01-33.3-37.02-41.16-59.49-7.91-22.61-9.39-46.62-4.39-71.36,4.42-21.92,14.34-41.67,28.69-57.12,14.38-15.48,33.33-26.77,54.79-32.65,9.29-2.54,18.92-3.83,28.63-3.83.21,0,.43,0,.64,0,3.86-2.81,7.37-5.45,10.1-7.83,14.57-12.67,29.86-26.2,42.61-40.16,8.89-9.73,16.53-19.05,23.36-28.5,3.86-5.34,8.1-11.27,12.04-17.27-5.21-15.76-8.64-32.59-10.44-51.11-.02-.22-.05-.43-.08-.64l-.05-.42c-.44-3.69-1.19-9.89-1.07-17.57.38-23.33,9.25-44.9,24.98-60.73,15.86-15.97,37.32-24.76,60.42-24.76.22,0,.44,0,.65,0,14.78-26.94,29.13-43.61,39.14-54.22,16.83-17.84,35.43-33.68,56.86-48.43,39.26-27.06,81.73-44.3,126.22-51.23,25.12-3.91,46.13-5.73,66.15-5.73,7.15,0,14.26.24,21.15.72,52.72,3.67,100.91,17.48,143.25,41.04,12.22,6.8,23.16,15.36,32.59,25.5,4.25,1.28,8.42,2.91,12.45,4.87l.28.11,2.01,1.03c12.91,6.57,22.75,14.14,29.94,19.67l2.16,1.65c17.43,13.29,34.21,28.49,52.78,47.8,36.24,37.68,60.01,73.96,74.81,114.16,12.86,34.92,18.58,67.59,17.49,99.85.94,41.27-7.85,76.65-16.59,105.83-11.4,38.07-26.37,72.82-40.85,106.43l-1.1,2.54c-2.9,6.72-5.89,13.68-8.73,20.4-6.69,15.83-12.85,32.4-18.68,50.28,8.95,6.91,16.97,15.1,23.96,24.48,19.96,26.84,26.44,54.98,29.86,76.5,1.86,11.62,3.68,25.7,3.11,41.91-.49,20.64-3.03,40.01-5.26,57.11l-.69,5.22-1.68,13.03c11.1-2.32,22.53-3.49,34.21-3.49,10.42,0,21.1.96,31.72,2.87,41.04,7.36,74.49,25.64,99.41,54.33,26.36,30.37,40.83,65.05,43.02,103.09.73,12.77.05,25.12-2.04,36.99,9.24-5.78,18.94-13.99,29.74-23.31,16.55-14.3,35.18-21.55,55.4-21.55,34.28,0,64.04,20.98,75.83,53.44,2.88,7.89,4.05,14.92,4.67,19.52,1,7.17,1.67,14.72,2.06,23.01,1.38,30.08,1.71,57.51,1,83.86-.64,23.72-4.44,45.16-7.79,64.07-5.78,32.66-15.01,63.77-27.46,92.45-5.78,13.31-12.45,26.06-20.2,38.6,16.51,15.02,29.42,30.2,39.94,46.87,17.5,27.74,28.86,55.12,34.75,83.71,3.58,17.34,6.91,36.32,6.98,57.48.14,33.21-7.24,66.89-21.92,100.11-15.16,34.28-36.35,64.22-62.99,89-30.75,28.58-67.09,48.01-108.03,57.75-16.51,3.93-35.98,8.14-58.08,8.14-3.66,0-7.37-.12-11.03-.36-4.61-.3-9.25-.72-13.95-1.26-6.85,23.07-16.92,39.87-21.3,47.18-20.86,34.83-51.45,58.74-90.92,71.07-11.61,3.62-27.35,7.91-46.17,9-3.01.17-6.07.26-9.11.26-7.1,0-14.14-.45-21.27-1.36-16.97,31.47-39.86,57.5-68.1,77.42-37.44,26.4-78.71,39.79-122.68,39.79Z"/>
  <path d="m1023.7,2036.37c-8.19,0-16.53-.49-24.82-1.46-41.74-4.89-78.69-19.8-109.81-44.32-25.09-19.78-44.69-45.7-58.27-77.05-2-4.63-3.74-9.17-5.27-13.54-11.94,1.77-23.56,2.63-35.16,2.63-2.84,0-5.78-.06-8.72-.17-34.27-1.33-66.72-8.54-96.7-21.46-4,2.83-7.49,4.86-9.9,6.26l-.62.36-.14.07c-31.38,18.19-58.88,30.2-86.5,37.79-25.07,6.89-55.2,13.92-88.56,13.92-1.21,0-2.43,0-3.65-.03-36.6-.56-70.11-6.43-102.38-17.96-48.04-17.17-89.08-46.76-121.97-87.97-22.83-28.62-38.62-62.18-46.92-99.74-3.15-14.27-5.05-29.35-5.79-46.01-23.2-1.96-46.57-7.64-70.95-17.21-30.39-11.94-57.73-29.78-81.29-53.03-34.06-33.63-54.73-75.27-63.19-127.3-4.72-29.05-4.05-55.93,2.05-82.19,4.72-20.31,11.56-44.38,26.45-68.96.71-1.18,1.51-2.49,2.38-3.9-2.45-5.74-4.66-11.71-6.67-18.04-10.41-32.7-10.51-66.14-.3-99.39,8.09-26.36,21.58-49.34,40.09-68.33,18.27-18.74,40.91-33.01,67.29-42.43,18.57-6.63,37.62-9.99,56.62-9.99,10.44,0,20.83,1,31.1,3-.23-.78-2.54-8.54-2.54-8.54-2.05-6.87-4.1-13.8-6.16-20.73-4.93-16.64-10.19-34.34-15.43-51.72-1.17-3.89-2.37-7.77-3.58-11.65l-.16-.52c-3.17-10.26-6.45-20.89-9.49-32.14-1.52-5.65-3.31-11.53-5.49-18.62-2.36-7.68-5.03-16.38-7.5-25.74-1.93-7.29-4.41-15.06-7.03-23.28-1.68-5.25-3.75-11.73-5.7-18.26-2.66-8.96-4.35-18.55-5.03-28.52-1.71-24.94,6.42-48.45,22.88-66.19,16.42-17.71,39.2-27.57,64.16-27.76,6.11-.04,12.48-.25,19.22-.47h.46c8.6-.3,17.52-.6,26.96-.6,4.48,0,8.51.06,12.32.19,23.57.75,47.05.85,66.9.85,8.53,0,17.06-.02,25.58-.04l17.22-.04c9.59,0,18.91,0,27.97-.13,53.52-.7,105.44-.79,149.16-.79,3.29,0,6.58,0,9.87,0,2.62-4.64,5.39-9.4,8.46-14.32,7.8-12.52,15.85-24.36,23.39-35.3,6.95-10.07,14.38-19.63,22.24-28.62-7.13.31-14.38.46-21.6.46-41.06,0-82.08-4.87-125.38-14.88-23.79-5.5-54.62-14.87-81.96-38.77-19-16.62-32.53-36.17-40.21-58.12-7.73-22.09-9.17-45.54-4.29-69.72,4.31-21.41,14.01-40.71,28.03-55.8,14.05-15.12,32.56-26.15,53.52-31.9,9.08-2.48,18.49-3.74,27.97-3.74.21,0,.42,0,.62,0,3.78-2.75,7.2-5.33,9.87-7.65,14.23-12.38,29.17-25.6,41.63-39.23,8.69-9.5,16.15-18.61,22.82-27.84,3.77-5.22,7.91-11.01,11.77-16.88-5.09-15.39-8.44-31.83-10.2-49.93-.02-.22-.05-.42-.07-.63l-.05-.41c-.43-3.6-1.16-9.66-1.04-17.16.37-22.79,9.04-43.86,24.41-59.33,15.49-15.6,36.45-24.19,59.02-24.19.21,0,.43,0,.64,0,14.44-26.32,28.46-42.6,38.24-52.97,16.45-17.43,34.61-32.9,55.54-47.31,38.35-26.43,79.84-43.27,123.3-50.05,24.54-3.82,45.07-5.59,64.62-5.59,6.98,0,13.93.24,20.66.71,51.5,3.59,98.58,17.08,139.94,40.09,11.94,6.64,22.62,15.01,31.84,24.92,4.15,1.25,8.22,2.84,12.17,4.76l.27.11,1.97,1c12.61,6.42,22.23,13.82,29.25,19.22l2.11,1.61c17.03,12.98,33.42,27.83,51.56,46.69,35.4,36.81,58.63,72.25,73.08,111.52,12.56,34.11,18.15,66.03,17.09,97.55.92,40.32-7.67,74.88-16.2,103.39-11.13,37.19-25.76,71.14-39.91,103.97l-1.07,2.49c-2.83,6.57-5.76,13.36-8.53,19.93-6.54,15.47-12.55,31.65-18.25,49.12,8.75,6.75,16.58,14.75,23.4,23.92,19.5,26.22,25.83,53.71,29.17,74.73,1.81,11.35,3.59,25.1,3.04,40.94-.48,20.16-2.96,39.09-5.14,55.79l-.67,5.1-1.64,12.73c10.84-2.27,22.01-3.41,33.42-3.41,10.18,0,20.61.94,30.99,2.8,40.09,7.19,72.77,25.04,97.11,53.08,25.75,29.67,39.89,63.55,42.02,100.71.72,12.48.05,24.54-1.99,36.13,9.02-5.65,18.51-13.66,29.05-22.77,16.16-13.97,34.37-21.05,54.12-21.05,33.48,0,62.56,20.49,74.07,52.21,2.81,7.71,3.95,14.58,4.57,19.07.97,7.01,1.63,14.38,2.01,22.48,1.35,29.39,1.67,56.18.97,81.92-.62,23.17-4.33,44.11-7.61,62.59-5.64,31.91-14.67,62.3-26.82,90.32-5.64,13-12.16,25.45-19.73,37.71,16.13,14.67,28.74,29.5,39.02,45.79,17.09,27.1,28.2,53.85,33.94,81.78,3.5,16.94,6.75,35.48,6.82,56.15.13,32.44-7.07,65.35-21.42,97.8-14.81,33.48-35.51,62.74-61.53,86.95-30.04,27.92-65.54,46.9-105.53,56.41-16.12,3.84-35.15,7.95-56.74,7.95-3.58,0-7.2-.12-10.77-.35-4.51-.29-9.03-.7-13.62-1.23-6.69,22.54-16.53,38.95-20.81,46.09-20.38,34.02-50.26,57.38-88.82,69.42-11.35,3.54-26.72,7.73-45.1,8.79-2.94.17-5.93.25-8.9.25-6.93,0-13.82-.44-20.78-1.33-16.58,30.74-38.94,56.17-66.52,75.63-36.57,25.79-76.89,38.87-119.85,38.87Z"/>
  <path class="cls-1" d="m1023.7,2015.52c-7.37,0-14.91-.44-22.39-1.32-37.86-4.43-71.28-17.88-99.32-39.99-22.34-17.61-39.85-40.81-52.04-68.96-4.46-10.3-7.46-20.14-10-29.11-17.21,3.78-33.58,5.63-49.57,5.63-2.58,0-5.25-.05-7.93-.15-36.18-1.4-69.91-9.81-100.65-25.06-6.49,6.43-13.21,10.34-17.23,12.68l-.35.21-.12.06c-29.89,17.35-55.9,28.75-81.82,35.87-23.73,6.52-52.15,13.18-83.03,13.18-1.08,0-2.17,0-3.27-.02h0c-34.35-.52-65.66-6-95.74-16.75-44.34-15.84-82.25-43.21-112.69-81.34-20.83-26.11-35.24-56.8-42.85-91.23-3.07-13.91-4.85-28.74-5.44-45.36-.2-5.62-.06-11.06.26-16.25-.88.01-1.76.02-2.62.02-26.62,0-53.34-5.41-81.69-16.54-27.74-10.9-52.72-27.2-74.25-48.46-30.81-30.42-49.54-68.3-57.26-115.81-4.27-26.32-3.69-50.56,1.78-74.13,4.35-18.71,10.6-40.8,23.97-62.87,2.47-4.09,5.22-8.53,8.28-13.14-4.09-8.02-7.59-16.61-10.55-25.92-9.1-28.57-9.18-57.83-.24-86.94,7.11-23.15,18.92-43.3,35.09-59.89,16.03-16.44,36.01-29.01,59.37-37.35,16.31-5.82,33-8.78,49.6-8.78,21.25,0,42.13,4.74,62.36,14.14-.48-1.62-.96-3.24-1.44-4.85-3.5-11.82-7.01-23.63-10.54-35.45l-1.83-6.17c-2.05-6.88-4.1-13.8-6.16-20.73-4.94-16.66-10.2-34.39-15.46-51.82-1.2-3.98-2.43-7.96-3.66-11.93l-.11-.35c-3.12-10.11-6.35-20.57-9.28-31.43-1.61-5.97-3.45-12.02-5.69-19.31-2.3-7.49-4.91-15.98-7.27-24.94-2.07-7.82-4.63-15.83-7.33-24.31-1.64-5.12-3.68-11.51-5.58-17.87-2.22-7.48-3.63-15.54-4.21-23.99-1.31-19.14,4.86-37.1,17.36-50.58,12.47-13.45,29.89-20.95,49.03-21.1,6.36-.04,12.86-.26,19.74-.48h.46c8.46-.3,17.21-.59,26.28-.59,4.25,0,8.05.06,11.63.18,23.89.76,47.58.87,67.6.87,8.55,0,17.09-.02,25.63-.04l17.22-.04c9.66,0,19.02-.01,28.2-.13,53.42-.7,105.24-.79,148.89-.79,7.38,0,14.76,0,22.13.01l.24-.44c4.21-7.64,8.56-15.55,13.66-23.72,7.57-12.16,15.46-23.76,22.86-34.48,13.87-20.09,29.57-37.79,46.98-52.97-3.41-3.1-6.42-6.55-8.98-10.31-10.63.8-21.01,1.35-30.99,1.84-7.74.38-15.66.57-23.53.57-39.47,0-78.94-4.69-120.68-14.35-21.42-4.95-49.08-13.3-72.93-34.15-32.65-28.55-46.07-66.91-37.78-108,7.24-35.95,31.53-62.09,66.62-71.71,7.28-1.99,14.84-3,22.46-3,2.32,0,4.64.09,6.97.28l.5-.36c6.24-4.47,12.08-8.66,16.71-12.68,14.69-12.77,30.14-26.45,43.34-40.9,9.23-10.1,17.19-19.81,24.33-29.7,6.18-8.56,12.54-17.53,17.92-26.62-6.44-16.42-10.55-34.36-12.5-54.43-.05-.48-.1-.93-.16-1.38v-.11c-.41-3.3-1.01-8.28-.91-14.36.59-35.92,27.49-62.99,62.57-62.99,4.16,0,8.43.4,12.69,1.19,15.22-31.01,30.48-49.17,41.36-60.7,15.42-16.34,32.49-30.88,52.2-44.45,35.75-24.64,74.34-40.33,114.68-46.61,23.44-3.65,42.96-5.35,61.41-5.35,6.49,0,12.96.22,19.21.66,48.43,3.37,92.59,15.99,131.25,37.51,11.78,6.55,22.03,15.03,30.59,25.3,7.01,1.43,12.23,3.8,15.08,5.22l.12.05,1.12.57c10.9,5.55,19.28,11.99,26.01,17.17l2.14,1.64c16.19,12.35,31.83,26.52,49.21,44.59,33.34,34.66,55.12,67.8,68.54,104.27,11.69,31.74,16.86,61.27,15.8,90.23.95,37.63-7.2,70.39-15.32,97.52-10.79,36.04-25.18,69.42-39.09,101.71l-.99,2.29c-2.87,6.67-5.84,13.56-8.67,20.26-8.59,20.32-16.36,42-23.63,65.92,11.97,6.7,22.63,16.08,31.27,27.68,16.78,22.57,22.34,46.89,25.3,65.55,1.66,10.4,3.29,22.95,2.79,37.04-.45,19.11-2.85,37.5-4.98,53.73l-.67,5.06-2.78,21.55c-1.02,7.92-2.05,15.94-3.1,24,18.12-8.41,37.64-12.66,58.34-12.66,8.96,0,18.15.83,27.31,2.47,35.29,6.32,63.9,21.87,85.04,46.22,22.65,26.1,35.08,55.79,36.95,88.23,1.38,24.05-3.11,46.1-13.37,65.74,15.46-.3,29.03-4.35,42.57-12.69,10.52-6.48,20.86-15.2,32.32-25.11,4.57-3.95,18.49-15.98,40.48-15.98,24.6,0,45.98,15.1,54.47,38.47,2.11,5.78,2.98,10.93,3.51,14.77.89,6.4,1.49,13.17,1.84,20.63,1.32,28.86,1.64,55.15.96,80.39-.58,21.63-4.15,41.76-7.3,59.52-5.36,30.29-13.91,59.11-25.42,85.64-7.47,17.2-16.77,33.7-28.15,49.89,16.98,13.69,34.78,30.6,48.93,53.03,15.73,24.94,25.92,49.42,31.16,74.85,3.28,15.88,6.33,33.19,6.4,52.02.12,29.5-6.49,59.54-19.64,89.29-13.66,30.88-32.72,57.84-56.66,80.11-27.36,25.43-59.71,42.72-96.15,51.39-14.97,3.57-32.58,7.38-51.91,7.38-3.13,0-6.29-.1-9.42-.31-10.76-.7-21.05-2.09-30.91-3.89-4.82,28.89-17.64,50.28-22.77,58.84-17.67,29.5-43.63,49.77-77.15,60.24-10.2,3.18-23.97,6.95-40.08,7.87-2.55.14-5.13.22-7.7.22-10.67,0-21.42-1.22-32.56-3.72-1.31,2.95-2.7,5.88-4.18,8.77-15.26,29.94-36.32,54.52-62.59,73.07-32.98,23.26-69.25,35.05-107.82,35.05Z"/>
  <path class="cls-3" d="m999,251.51c-2.6,9.18-6.18,18.02-9.94,26.76-8.8,20.37-18.58,40.24-33.16,57.28-17.1,19.95-37.47,34.54-64.52,36.8-14.36,1.19-28.07-2.81-41.44-7.95-18.47-7.14-31.89-20.55-43.63-35.7-13.63-17.6-31.66-22.18-52.61-19.66-5.08.62-8.34,3.43-11.15,7.55-8.11,11.86-16.71,23.36-29.04,31.39-4.6,3-9.72,4.47-15.06,5.18-2.89.39-5.22,1.21-7.22,2.73-4.52-1.08-9.94-2.79-15.75-5.56-8.45-4.01-14.79-8.84-19.2-12.77-3.37-3.02-6.6-6.45-9.44-10.36-14.13-19.45-17.16-41.51-19.08-61.87-.33-3.45-.94-6.89-.89-10.32.1-6.24,2.89-8.57,8.93-7.41,14.6,2.79,29.63,4.01,43.75,8.68,1.79.6,3.54,1.12,5.3,1.6.02,0,.02.02.02.02,8.23,2.49,20.7,4.82,20.7,4.82,3.71,0,6.69-.07,12.41-.28,5.36-.19,6.33-.25,7.92-.56,1.78-.35,3.23-.78,4.22-1.12h.02c-.48,2.45.83,3.54,4.31,4.01,32.89,4.41,65.91,4.16,98.91,2.16,39.45-2.43,78.02-11.05,116.82-18.1,12.59-2.27,25.21-4.39,37.84-6.53,1.69-.29,3.45-.4,5.16-.29,5.62.39,7.51,3.43,5.8,9.49Z"/>
  <path class="cls-2" d="m1171.2,1498.76c-3.26,2.9-6.72,5.62-9.76,8.74-17.64,18.15-39.8,27.51-63.94,32.82-13.55,2.98-27.19,5.92-41.24,4.89-31.83-2.33-60.68-12.31-83.89-34.9-15.57-15.15-24.02-34.74-29.66-55.33-7.81-28.5-5.42-56.87,5.14-84.13,10.51-27.13,26.27-51.21,51.78-66.46,39.54-23.64,81.34-30.57,125.59-13.29,20.93,8.17,34.73,22.79,44.36,42.87,9.29,19.38,22.49,36.09,40.34,48.72,18.01,12.73,38.03,20.35,59.64,24.11,11.53,2.01,23.1,3.35,34.83,2.98,38.55-1.22,71.47-15.02,96.64-44.72,10.05-11.85,17.05-25.77,21.21-40.92.27-.97,1.27-2.15-.23-2.87-.98-.47-1.82.34-2.46,1.02-.97,1.03-1.93,2.09-2.71,3.27-15.56,23.69-36.61,40.04-63.83,48.46-15.49,4.79-31.1,8.62-47.43,7.26-28.41-2.37-54.56-10.36-76.93-29.29-27.41-23.2-41.59-52.71-44.03-88.05-2.51-36.3,5.33-70.29,27.22-99.69,19.29-25.91,45.79-40.5,78.25-43.68,18.64-1.83,37.14-.19,55.69,1.62,26.07,2.54,51.9,7.03,77.94,9.65,32.23,3.25,62.29-3.19,90.14-20.34,14.35-8.84,27.03-19.57,39.68-30.5,3.7-3.2,4.22-3,4.9,1.95.71,5.15,1.13,10.35,1.37,15.54,1.17,25.4,1.6,50.82.92,76.22-.46,17.2-3.45,34.2-6.45,51.13-4.45,25.12-11.42,49.49-21.6,72.93-9.9,22.81-23.6,43.11-39.76,61.9-10.54,12.26-22.02,23.54-35.15,32.95-21.44,15.36-44.5,27.56-70.18,34.32-1.19.31-2.35.75-3.85,1.24,1.28,1.91,3,1.53,4.32,1.32,11.59-1.84,23.31-1.02,34.95-1.59,23.86-1.16,45.9-7.86,66.96-18.58,2.24-1.14,4.62-2.2,6.52-3.78,5.22-4.34,9.53-2.49,14.25,1.06,17.87,13.46,34.73,27.95,46.79,47.08,10.92,17.31,19.38,35.71,23.55,55.97,2.78,13.49,5.17,27.01,5.23,40.76.09,23.09-5.5,45.09-14.78,66.07-10.32,23.34-24.59,43.98-43.39,61.46-20.24,18.82-43.77,31.33-70.57,37.71-14.6,3.48-29.33,6.64-44.46,5.65-18.82-1.23-37.13-5.41-55.32-10.18-12.11-3.18-23.71-7.62-34.97-13.03-1.39-.67-3-1.68-4.44-.48-1.59,1.31-.95,3.2-.5,4.87,3.8,13.96,4,28.34,5.3,42.63,1.99,21.75-5.48,40.7-16.25,58.67-10.47,17.48-25.8,29.08-45.31,35.17-8.63,2.69-17.38,4.87-26.38,5.38-11.27.64-22.33-1.23-33.13-4.47-13.84-4.15-27.01-9.69-38.35-18.91-.49-.4-1.01-.78-1.57-1.06-1.76-.9-3.47-2.95-5.54-1.72-2.07,1.22-.55,3.48-.49,5.26.69,20.16-3.67,39.25-12.78,57.13-10.69,20.98-25.41,38.8-44.7,52.41-27.22,19.2-57.44,27.62-90.79,23.72-26.1-3.06-49.97-11.81-70.73-28.17-15.83-12.48-27.07-28.45-35.05-46.89-4.35-10.04-7.05-20.55-9.99-31.03-1.21-4.31-.26-6.61,3.65-9.28,15.1-10.31,27.75-22.93,37.74-38.6,13.08-20.5,21.33-42.83,28.52-65.74.6-1.91,1.47-3.83.93-6.29-3.19.93-4.75,3.53-6.5,5.76-7.9,10.07-16.08,19.87-25.34,28.75-24,23.03-51.92,39.35-83.7,49.14-20.49,6.31-41.31,10.26-62.86,9.43-37.55-1.45-71.95-12.36-102.67-34.27-18.78-13.4-35.09-29.32-48.15-48.39-3.82-5.58-6.82-11.73-10.19-17.61-.81-1.41-1.68-2.93-3.59-2.43-1.96.51-1.97,2.34-1.79,3.91,1.18,10.51.25,21.11,1.6,31.63,2.19,17.08,8.22,32.66,17.49,47.07.6.93,1.28,1.8,1.87,2.73q4.96,7.92-3.33,12.7c-21.77,12.66-44.29,23.71-68.64,30.39-23,6.31-46.32,11.5-70.37,11.13-26.48-.4-52.28-4.44-77.46-13.44-35.43-12.66-64.26-34.3-87.37-63.26-15.85-19.86-26.22-42.9-31.77-68.01-2.57-11.64-3.72-23.36-4.14-35.13-.43-11.81,1.53-23.57,2.9-35.31.32-2.74,2.63-4.21,4.69-5.68,8.85-6.31,18.06-12.09,25.92-19.75,9-8.77,15.4-19.12,19.88-30.73,4.68-12.12,7.7-24.71,10.31-37.4.27-1.31,1.16-3.06-.53-3.81-1.6-.71-2.5,1.02-3.35,2.04-6.72,8.15-13.28,16.4-20.91,23.79-15.64,15.13-34.39,24.44-55.17,29.82-12.83,3.32-25.88,5.55-39.23,5.91-22.51.62-43.93-4.43-64.63-12.56-20.77-8.16-39.16-20.27-55.08-35.99-23.6-23.31-35.83-52.16-41.07-84.45-2.84-17.47-2.97-34.87,1.04-52.13,3.75-16.14,8.51-31.91,17.22-46.28,6.8-11.23,13.97-22.13,23.12-31.6,1.97-2.04,4.15-3.86,6.13-5.88,2.2-2.25,1.93-4.34-.42-6.48-12.55-11.46-20.4-25.63-25.55-41.8-5.68-17.84-5.49-35.34-.07-53,9.31-30.32,29.77-49.86,59.19-60.36,31.46-11.23,60.49-4.44,87.06,13.84,12.36,8.5,20.95,20.9,27.01,34.78,7.52,17.24,11.79,34.94,7.56,53.85-2.72,12.16-5.55,24.3-7.54,36.62-1.39,8.58-1.15,16.94,1.53,25.21.34,1.04.81,2.05,1.38,2.99.84,1.39,1.85,2.75,3.78,1.93,1.71-.73,1.85-2.21,1.87-3.94.13-19.02,4.97-36.27,18.17-50.73,15.29-16.74,33.94-27.4,56.31-30.33,27.94-3.65,54.22,1.69,76.95,19.1,12.78,9.79,21.69,23.01,27.04,38.17,7.94,22.48,10.93,45.37,2.64,68.57-5.41,15.15-13.44,28.52-26.47,38.45-1.87,1.43-3.46,3.23-5.12,4.92-.74.75-1.93,1.57-1.2,2.78.69,1.14,1.99.78,3.01.36,13.32-5.41,26.4-11.14,37.57-20.64,10.36-8.82,18.14-19.24,22.64-32.06,1.47-4.19,4.01-6.03,8.59-6.72,21.46-3.21,40.94,2.9,59.94,11.8,2.89,1.35,2.57,3.5,2.11,5.97-2.84,15.04-3.23,30.14-.28,45.18,3.85,19.61,11.51,37.31,26.34,51.39,4.46,4.23,9.81,6.82,15.02,9.75,1.39.78,3.07,1.72,4.39.46,1.65-1.57-.18-2.98-1.04-4.05-9.57-11.91-13.17-26.18-15.29-40.74-3.17-21.72-.74-43.22,5.69-64.11,15.77-51.23,50.57-84.96,99.1-105.21,26.84-11.2,55.03-13.16,83.72-8.83,30.43,4.59,58.3,15.38,82.15,35.06,15.92,13.14,28.52,29.24,39.75,46.64,4.86,7.53,5.04,14.26,3.32,22.26-3.61,16.84-6.53,33.85-5.81,51.14,1.08,25.89,7.55,50.12,23.05,71.47,5.1,7.03,10.16,14.08,15.98,20.52,16.09,17.77,36.42,29.03,58.52,37.33,19.85,7.45,40.42,11.59,61.69,10.24,32.65-2.08,62.26-12.23,85.88-35.81,10.88-10.86,18.57-24.12,24.7-38.17l-1.03-.85Z"/>
  <path class="cls-2" d="m727.51,1227.7c-121.9,0-243.8.01-365.7-.04-4.88,0-9.75-.63-14.63-.86-2.35-.11-3.58-1.59-4.88-3.27-4.09-5.26-5.83-11.58-7.68-17.72-9.53-31.58-18.79-63.24-28.16-94.87-4.12-13.9-8.25-27.79-12.38-41.68-7.22-24.26-14.38-48.55-21.69-72.78-4.23-14.02-8.78-27.98-12.58-42.09-3.98-14.76-8.99-29.19-12.89-43.97-3.9-14.78-9.02-29.23-13.39-43.88-1.12-3.75-1.71-7.72-1.98-11.63-.47-6.84,3.27-10.86,10.06-10.91,18.62-.13,37.21-1.53,55.84-.93,34.03,1.09,68.08.92,102.12.84,13.04-.03,26.1.02,39.13-.15,117.14-1.52,234.29-.22,351.43-.92,11.49-.07,23.01-.74,34.53-.72,9.2.02,10.32.84,13.72,9.24,6.83,16.87,10.98,34.59,16.22,51.96,12.57,41.72,24.94,83.5,37.38,125.25,9.73,32.68,19.43,65.37,29.17,98.04,4.37,14.67,8.91,29.3,13.14,44.01,1.5,5.23,4.32,7.17,9.87,7.1,32.04-.43,64.08,1.63,96.11.61,19.41-.62,38.81-.74,58.22-.67,7.72.03,15.44.57,23.16.82,2.98.09,5.18,1.26,6.35,4.07,4.86,11.72,8.49,23.8,9.33,36.52.42,6.32-.99,7.58-7.2,7.72-15.46.35-30.92.88-46.37.89-118.74.07-237.48.04-356.22.04Zm-88.35-176.29c-.24-3.14-.33-6.3-.75-9.42-2.76-20.77-12.25-37.94-27.98-51.68-20.33-17.76-43.32-28.13-70.75-21.94-27.74,6.25-42.69,28.13-40.33,56.81,1.32,16.05,8.14,30.29,18.44,42.87,19.7,24.06,44.14,37.3,75.95,33.57,27.03-3.17,45.23-23.62,45.42-50.21Z"/>
  <path class="cls-2" d="m698.66,348.07c-1.42,1.07-2.65,2.53-3.78,4.44-14.84,25.35-30.19,50.36-49.02,73-18,21.64-37.61,41.65-60.07,58.83-8.77,6.69-17.06,14-26.79,19.34-6.92,3.81-6.1,10.84-7.2,17.06-2.3,12.72-8.43,23.12-18.74,30.97-3,2.28-6.32,4.2-9.15,6.66-2.76,2.41-2.05,4.13,1.46,5.11,26.63,7.54,53.84,12.05,81.27,14.84,18.67,1.91,37.45,1.53,56.24.6,19.15-.95,37.99-3.65,56.82-6.76,26.37-4.34,51.17-13.53,75.55-24.2,24.45-10.71,45.39-26.58,65.96-43.1,2.07-1.67,4.23-5.22,7.04-3.72,2.85,1.49,1.69,5.41,1.83,8.34,1.25,26.38-3.71,51.55-15.42,75.25-5.52,11.15-12.52,21.24-23.64,27.7-.95.54-2.13,1.16-1.74,2.49.44,1.53,1.88,1.48,3.14,1.37,24.98-1.88,49.45-6.31,73.25-14.16,7.92-2.62,15.69-5.64,23.5-9.05-2.14,6.1-6.55,10.47-10.54,15-12.88,14.58-29.09,24.31-47.39,30.16-19.78,6.34-40.31,9.49-61.06,9.33-20.01-.16-34.71-4-47.86-5.52-.58-.07-1.84-.26-3.53-.58-3.9-.72-7.01-1.56-9.1-2.2-.18-.04-2.92-.81-3.11-.86-6.13-1.7-6.97-1.91-8.43-2.49-1.84-.76-3.14-1.48-4.92-2.3-1.25-.58-2.97-.91-2.7-2.78.25-1.79,1.93-1.88,3.32-2.09,14.32-2.11,27.93-6.69,41.14-12.37,22.18-9.52,42.02-22.45,56.49-42.3,4.09-5.6,7.62-11.63,9.99-18.21.35-.98,1.11-2.27,0-3.06-1.11-.81-2.07.26-2.85,1.02-30.9,29.77-70.56,39.35-110.66,47.36-25.68,5.15-51.83,6.73-78.02,8.01-43.56,2.14-86.28-2.6-128.61-12.38-17.49-4.04-34.55-9.54-48.3-21.55-16.21-14.17-23.92-31.74-19.44-53.93,3.02-14.98,11.33-24.1,25.87-28.09,14.6-4,31.88,4.62,37.31,18.72.79,2.05.76,5.5,3.86,5.09,2.78-.35,2.79-3.62,3.07-5.83.84-6.38-.74-12.33-4.64-17.37-2.6-3.36-1.49-5.11,1.41-7.24,9.42-6.9,19.11-13.42,27.93-21.08,16.65-14.47,33.09-29.12,48.01-45.46,10.14-11.1,19.69-22.64,28.46-34.76,16.65-23.02,24.57-34.81,27.82-43.88,1.83-5.09,4.96-15.12,9.14-15.06,2.12.03,3.83,2.66,4.97,4.96,5.29,4.56,12.75,9.82,22.54,13.7,3.28,1.3,6.41,2.28,9.34,3.03Z"/>
  <path d="m979.41,252.85c-2.37,8.38-5.64,16.44-9.06,24.42-8.03,18.58-16.95,36.71-30.25,52.26-15.6,18.2-34.18,31.51-58.86,33.57-13.1,1.09-25.61-2.56-37.8-7.25-16.85-6.52-29.09-18.74-39.8-32.57-12.44-16.05-28.88-20.23-47.99-17.93-4.64.56-7.61,3.13-10.17,6.89-7.4,10.82-15.25,21.31-26.49,28.63-4.2,2.74-8.87,4.08-13.74,4.73-2.63.35-4.76,1.11-6.59,2.49-4.13-.98-9.06-2.55-14.37-5.08-7.71-3.65-13.49-8.06-17.51-11.65-3.07-2.76-6.02-5.88-8.61-9.45-12.89-17.74-15.65-37.87-17.41-56.44-.3-3.14-.86-6.29-.81-9.41.09-5.69,2.63-7.82,8.15-6.76,13.31,2.55,27.03,3.65,39.91,7.92,1.63.54,3.23,1.02,4.83,1.46.02,0,.02.02.02.02,7.51,2.27,18.88,4.4,18.88,4.4,3.39,0,6.1-.07,11.32-.25,4.89-.17,5.77-.23,7.22-.51,1.63-.32,2.95-.71,3.85-1.02h.02c-.44,2.23.76,3.23,3.93,3.65,30,4.02,60.13,3.79,90.23,1.97,35.99-2.21,71.17-10.08,106.57-16.51,11.49-2.07,22.99-4,34.52-5.95,1.55-.26,3.14-.37,4.71-.26,5.13.35,6.85,3.13,5.29,8.66Z"/>
  <path class="cls-2" d="m1098.29,685.18s-.35.63-.98.74c-.9.16-1.76-.97-2.62-1.35-18.62-8.13-34.73-19.83-48.5-34.67-19.3-20.83-30.72-45.41-35.18-73.56-2.18-13.65-3.02-27.35-3.16-40.98-.16-15.25.84-30.55,2.72-45.77,4.08-33.09,11.1-65.66,17.92-98.24,6.41-30.6,12.37-61.27,16.56-92.23,3.71-27.51,4.08-55.12-1.76-82.42-4.74-22.2-14.93-41.58-33.71-55.24-13.86-10.08-30.07-14.53-46.81-16.7-9.66-1.26-19.48-1.77-29.23-1.91-15.69-.25-31.14,2.14-46.48,5.15-15.37,3.02-30.32,7.61-44.74,13.67-22.18,9.33-42.96,20.83-61.6,36.45-19.94,16.72-34.08,37.38-45.46,60.3-.58,1.16-.95,2.13-1.11,2.92h-.02c-.16,0-.32.04-.46.11-3.02.58-20.11,3-40.84-2.74-11.65-16.04,26.51-64.15,48.23-87,19.55-20.57,37.33-32.67,43.09-36.64,27.7-19.09,57.98-32.07,91.18-37.26,22.41-3.5,45.18-5.74,67.89-4.15,37.89,2.63,74.11,11.86,107.55,30.48,11.94,6.64,19.66,16.7,24.68,29.44,7.96,20.18,12.07,41.24,13.95,62.57,1.6,18.02,1.33,36.29-.16,54.42-1.55,18.69-3.43,37.36-6.83,55.86-3.43,18.6-6.53,37.26-10.89,55.7-3.74,15.79-6.32,31.86-10.05,47.67-5.8,24.57-11.52,49.16-16.27,73.97-3.58,18.74-3.48,37.64-1.62,56.58,1.74,17.81,5.55,35.18,11.63,52.01,5.34,14.77,13.09,28.32,21.36,41.56,0,0,4.11,3.72,20.43,27.16.56.81,1.99,2.9,1.26,4.16Z"/>
  <path class="cls-2" d="m1201.85,779.67c-.38,17.84-2.9,35.49-5.19,53.15-3.97,30.65-7.8,61.32-12.15,91.92-2.22,15.61-4.73,31.2-6.97,46.8-3.82,26.57-8.67,52.93-13.71,79.27-2.67,13.93-5.01,27.95-9.82,41.4-1.7,4.75-4.59,8.13-9.02,10.43-11.99,6.2-24.96,9.75-37.7,13.9-30.18,9.83-61,17.43-91.69,25.43-17.24,4.5-34.3,9.76-51.86,13.05-3.86.72-5.62-.11-6.78-4.09-7.16-24.55-14.52-49.04-21.99-73.49-.95-3.1-.46-4.16,2.63-5.51,17.5-7.63,34.9-15.49,52.23-23.52,18.63-8.63,37.63-16.36,56.62-24.12,4.53-1.85,6.78-4.33,7.17-9.23,1.22-15.4,2.7-30.78,4.15-46.16,1.59-16.95,3.13-33.91,4.9-50.84,2.01-19.29,3.99-38.58,6.46-57.81,2.53-19.71,5.75-39.3,9.77-58.79,3.26-15.78,6.56-31.53,12.53-46.52,9.17-23.02,22.75-42.58,45.41-54.31,17.16-8.89,35.95-4.29,48.15,12.11,8.93,12.01,12.47,26.07,14.77,40.53,1.39,8.73,2.45,17.5,2.1,26.39Z"/>
  <path class="cls-2" d="m1230.13,363.07c1.01,28.45-4.98,55.12-12.89,81.55-12.21,40.81-30.13,79.35-46.65,118.43-12.01,28.4-21.82,57.52-30.25,87.13-2.59,9.08-4.41,18.39-6.47,27.62-.78,3.47-1.92,3.75-4.59,1.35-20.02-17.94-35.72-39.06-46.36-63.72-5.43-12.59-8.51-25.93-11.05-39.46-3.04-16.19-2.51-32.5-1.38-48.58,1.03-14.66,3.54-29.35,6.46-43.89,4.71-23.49,10.99-46.61,16.07-70,2.2-10.15,4.93-20.18,7.15-30.33,3.64-16.63,6.53-33.41,9.89-50.08,4.26-21.18,5.05-42.6,4.99-63.99-.07-21.7-1.45-43.37-6.47-64.75-3.17-13.51-6.59-26.89-10.84-40.07-.48-1.49-1.06-2.96-1.68-4.4-.55-1.27-1.75-2.57-.46-3.88,1.23-1.25,2.78-.38,3.97.22,7.07,3.6,13.22,8.58,19.47,13.35,15.34,11.69,29.34,24.9,42.7,38.79,23.81,24.76,44.14,51.84,56.16,84.48,8.42,22.89,13.43,46.33,12.26,70.23Z"/>
  <path class="cls-2" d="m1212.26,1057.34c-.73-15.65.41-31.25,4.1-46.47,6.09-25.14,17.56-47.56,38.43-63.54,20.01-15.32,43.05-20.25,68.03-15.77,20.34,3.64,38.42,11.75,52.12,27.53,13.43,15.47,21.9,33.18,23.11,54.19.89,15.56-2.05,29.7-10.89,42.6-7.33,10.7-17.48,17.33-29.36,22.06-15.06,6-30.77,7.43-46.7,8.82-21.76,1.9-43.87,1.46-65.06,8.12-9.05,2.84-18.01,5.86-26.33,10.48-3.33,1.85-4.74,1.22-4.99-2.69-.96-15.09-3.31-30.11-2.45-45.33Z"/>
  <path class="cls-2" d="m888.4,710.31c16.91-.93,29.43,7.59,40.97,18.13,13.41,12.24,22.46,27.6,30.25,43.71,9.42,19.48,17.71,39.46,23.57,60.32,8.62,30.69,16.48,61.56,22.21,92.96,4.16,22.82,7.6,45.74,10.74,68.71.7,5.15,1.57,10.28,2.43,15.4.39,2.35-.25,3.89-2.64,4.8-8.26,3.12-16.54,6.21-24.68,9.63-3.47,1.45-4.2-.05-4.42-2.91-2.15-27.53-5.53-54.91-9.74-82.19-3.78-24.47-8.47-48.79-14.4-72.83-6.7-27.14-13.86-54.13-26.79-79.19-6.69-12.97-13.83-25.58-25.09-35.23-8.22-7.04-17.19-12.39-28.72-10.87-9.77,1.28-17.23,6.85-23.95,13.4-15.44,15.04-25.64,33.45-33.52,53.29-1.86,4.69-3.78,9.37-5.5,14.12-.73,2-1.75,3.37-3.97,3.39-4.73.04-9.47.08-14.2-.01-2.67-.06-3.42-1.18-2.55-4.02,8.85-28.85,20.9-56.14,38.58-80.76,9.48-13.2,21.89-22.55,37.16-28.1,4.69-1.7,9.56-1.95,14.25-1.75Z"/>
  <path class="cls-2" d="m514.62,1354.74c-12.17.06-12.33.08-13.8-11.87-2.36-19.23-7.29-37.79-14.14-55.85-1.44-3.79-.75-5.79,2.75-8.07,15-9.78,30.78-17.26,48.84-19.25,16.27-1.79,31.68,1.42,46.7,7.42,11.26,4.49,21.18,11.19,30.88,18.28,4.56,3.33,4.59,3.53,1,7.85-18.45,22.23-34.66,45.82-44.17,73.42-.86,2.5-1.95,2.89-4.14,1.56-16.57-10.09-34.84-13.43-53.92-13.49Z"/>
  <path class="cls-2" d="m799.4,681.44c-4.27,6.38-8.59,12.73-12.82,19.14-17.35,26.29-31.28,54.36-43.51,83.33-5.15,12.2-10.38,24.36-15.45,36.59-1.33,3.2-3.46,4.28-6.85,4.66-20.97,2.31-41.9-.95-62.85-.21-3.82.14-4.26-2.14-2.67-4.98,5.22-9.36,10.24-18.85,15.9-27.94,6.82-10.95,14.07-21.64,21.4-32.26,20.97-30.39,47.35-54.74,80.62-71.21,8.07-3.99,17.01-5.43,26.22-7.11Z"/>
  <path class="cls-2" d="m966.08,1285.58c-.28,1.5-1.57,1.99-2.47,2.83-16.17,15-30.21,31.72-40.81,51.14-1.71,3.14-3,3.3-4.8.45-8.59-13.61-20.23-24.5-31.54-35.7-7.65-7.58-16.41-13.78-25.23-19.85-3.06-2.11-3.04-3.2.16-5.11,8.8-5.28,17.53-10.63,27.54-13.4,18.08-5,35.55-3.17,52.51,4.62,7.61,3.5,14.97,7.41,21.9,12.12,1.12.76,2.63,1.26,2.74,2.91Z"/>
  <path class="cls-1" d="m905.88,288.63c2.07-9.25,4.14-18.5,6.21-27.75,2.01,10.03,4.03,20.06,6.04,30.08,10.1,1.19,20.21,2.38,30.31,3.57-10.45,1.94-20.9,3.88-31.35,5.82-.77,10.18-1.54,20.35-2.3,30.53-1.97-10.3-3.93-20.61-5.9-30.91-10.15-.91-20.3-1.83-30.45-2.74,9.15-2.87,18.3-5.74,27.44-8.6Z"/>
  <path class="cls-1" d="m881.79,320.78c1.01-4.5,2.02-9.01,3.03-13.51.98,4.88,1.96,9.76,2.94,14.65,4.92.58,9.84,1.16,14.76,1.74-5.09.95-10.18,1.89-15.27,2.84l-1.12,14.86c-.96-5.02-1.91-10.03-2.87-15.05-4.94-.45-9.88-.89-14.83-1.34,4.45-1.4,8.91-2.79,13.36-4.19Z"/>
</svg>