<?xml version="1.0" encoding="UTF-8"?>
<svg id="Layer_1" data-name="Layer 1" xmlns="http://www.w3.org/2000/svg" viewBox="0 0 2321.42 1028.96">
  <defs>
    <style>
      .cls-1 {
        fill: #fff;
      }

      .cls-2 {
        fill: #3cc8e3;
      }

      .cls-3 {
        fill: #828282;
        opacity: .34;
      }
    </style>
  </defs>
  <g>
    <path d="m32.87,1028.96c-10.22,0-18.25-2.92-24.1-8.77-5.85-5.85-8.77-14.4-8.77-25.65v-44.2h11.1v43.75c0,8.66,1.9,14.99,5.72,18.99,3.81,4,9.2,6,16.16,6s12.45-2,16.27-6c3.81-4,5.72-10.33,5.72-18.99v-43.75h10.77v44.2c0,11.25-2.91,19.8-8.72,25.65-5.81,5.85-13.86,8.77-24.15,8.77Z"/>
    <path d="m127.36,1028.07v-77.73h9.11l51.41,63.85h-4.77v-63.85h11.1v77.73h-9.11l-51.41-63.85h4.77v63.85h-11.1Z"/>
    <path d="m244.62,1028.07l35.2-77.73h10.99l35.31,77.73h-11.66l-31.42-71.51h4.44l-31.42,71.51h-11.44Zm14.99-19.43l3-8.88h43.75l3.22,8.88h-49.97Z"/>
    <path d="m376.54,1028.07v-77.73h9.11l34.87,58.74h-4.89l34.42-58.74h9.11l.11,77.73h-10.66l-.11-60.96h2.55l-30.65,51.52h-5.11l-30.87-51.52h2.78v60.96h-10.66Z"/>
    <path d="m521.45,1028.07v-77.73h34.87c8.96,0,15.84,1.8,20.65,5.39,4.81,3.59,7.22,8.5,7.22,14.71,0,4.22-.94,7.77-2.83,10.66s-4.42,5.11-7.61,6.66c-3.18,1.55-6.63,2.33-10.33,2.33l2-3.33c4.44,0,8.36.78,11.77,2.33,3.4,1.55,6.11,3.83,8.11,6.83,2,3,3,6.72,3,11.16,0,6.66-2.5,11.83-7.5,15.49-5,3.66-12.42,5.5-22.26,5.5h-37.09Zm11.1-8.99h25.54c6.14,0,10.84-1.04,14.1-3.11,3.26-2.07,4.89-5.33,4.89-9.77s-1.63-7.81-4.89-9.88c-3.26-2.07-7.96-3.11-14.1-3.11h-26.54v-8.99h23.76c5.62,0,9.99-1.04,13.1-3.11,3.11-2.07,4.66-5.18,4.66-9.33s-1.55-7.25-4.66-9.33c-3.11-2.07-7.48-3.11-13.1-3.11h-22.76v59.74Z"/>
    <path d="m644.37,1028.07v-77.73h11.1v77.73h-11.1Z"/>
    <path d="m752.75,1028.96c-6,0-11.51-.98-16.55-2.94-5.04-1.96-9.4-4.74-13.1-8.33-3.7-3.59-6.59-7.79-8.66-12.6-2.07-4.81-3.11-10.11-3.11-15.88s1.04-11.07,3.11-15.88c2.07-4.81,4.98-9.01,8.72-12.6,3.74-3.59,8.12-6.37,13.16-8.33,5.03-1.96,10.58-2.94,16.66-2.94s11.77,1,16.88,3c5.11,2,9.44,5,12.99,8.99l-6.88,6.88c-3.18-3.11-6.64-5.39-10.38-6.83-3.74-1.44-7.79-2.17-12.16-2.17s-8.57.74-12.38,2.22c-3.81,1.48-7.11,3.55-9.88,6.22-2.78,2.67-4.92,5.83-6.44,9.49-1.52,3.66-2.28,7.64-2.28,11.94s.76,8.16,2.28,11.83c1.52,3.67,3.66,6.85,6.44,9.55,2.78,2.7,6.05,4.79,9.83,6.27,3.78,1.48,7.88,2.22,12.33,2.22,4.15,0,8.12-.65,11.94-1.94,3.81-1.29,7.35-3.46,10.6-6.5l6.33,8.44c-3.85,3.26-8.35,5.72-13.49,7.38-5.15,1.67-10.46,2.5-15.93,2.5Zm18.77-11.33v-28.87h10.66v30.31l-10.66-1.44Z"/>
    <path d="m874.45,1028.96c-10.22,0-18.25-2.92-24.1-8.77-5.85-5.85-8.77-14.4-8.77-25.65v-44.2h11.1v43.75c0,8.66,1.9,14.99,5.72,18.99,3.81,4,9.2,6,16.16,6s12.45-2,16.27-6c3.81-4,5.72-10.33,5.72-18.99v-43.75h10.77v44.2c0,11.25-2.91,19.8-8.72,25.65-5.81,5.85-13.86,8.77-24.15,8.77Z"/>
    <path d="m1004.03,1028.96c-5.92,0-11.42-1-16.49-3-5.07-2-9.46-4.79-13.16-8.38-3.7-3.59-6.59-7.79-8.66-12.6-2.07-4.81-3.11-10.07-3.11-15.77s1.04-10.96,3.11-15.77c2.07-4.81,4.96-9.01,8.66-12.6,3.7-3.59,8.07-6.38,13.1-8.38,5.03-2,10.55-3,16.55-3s11.4.98,16.43,2.94c5.03,1.96,9.4,4.74,13.1,8.33,3.7,3.59,6.57,7.81,8.61,12.66,2.04,4.85,3.05,10.12,3.05,15.82s-1.02,11.07-3.05,15.88c-2.04,4.81-4.91,9.01-8.61,12.6-3.7,3.59-8.07,6.37-13.1,8.33-5.04,1.96-10.51,2.94-16.43,2.94Zm-.11-9.88c4.37,0,8.38-.74,12.05-2.22,3.66-1.48,6.85-3.57,9.55-6.27s4.81-5.87,6.33-9.49c1.52-3.63,2.28-7.59,2.28-11.88s-.76-8.23-2.28-11.83c-1.52-3.59-3.63-6.75-6.33-9.49-2.7-2.74-5.89-4.85-9.55-6.33-3.66-1.48-7.68-2.22-12.05-2.22s-8.27.74-11.94,2.22c-3.66,1.48-6.87,3.59-9.6,6.33-2.74,2.74-4.87,5.9-6.38,9.49-1.52,3.59-2.28,7.53-2.28,11.83s.76,8.25,2.28,11.88c1.52,3.63,3.64,6.79,6.38,9.49,2.74,2.7,5.94,4.79,9.6,6.27,3.67,1.48,7.64,2.22,11.94,2.22Z"/>
    <path d="m1133.28,1028.96c-10.22,0-18.25-2.92-24.1-8.77-5.85-5.85-8.77-14.4-8.77-25.65v-44.2h11.1v43.75c0,8.66,1.9,14.99,5.72,18.99,3.81,4,9.2,6,16.16,6s12.45-2,16.27-6c3.81-4,5.72-10.33,5.72-18.99v-43.75h10.77v44.2c0,11.25-2.91,19.8-8.72,25.65-5.81,5.85-13.86,8.77-24.15,8.77Z"/>
    <path d="m1250.43,1028.96c-5.92,0-11.59-.91-16.99-2.72-5.4-1.81-9.66-4.16-12.77-7.05l4.11-8.66c2.96,2.59,6.74,4.74,11.33,6.44,4.59,1.7,9.36,2.55,14.32,2.55,4.51,0,8.18-.52,10.99-1.55,2.81-1.04,4.89-2.46,6.22-4.28,1.33-1.81,2-3.87,2-6.16,0-2.67-.87-4.81-2.61-6.44-1.74-1.63-4-2.94-6.77-3.94-2.78-1-5.83-1.87-9.16-2.61-3.33-.74-6.68-1.61-10.05-2.61-3.37-1-6.44-2.28-9.22-3.83-2.78-1.55-5.02-3.65-6.72-6.27-1.7-2.63-2.55-6.01-2.55-10.16s1.05-7.68,3.17-11.05c2.11-3.37,5.37-6.07,9.77-8.11,4.4-2.04,10.01-3.05,16.82-3.05,4.51,0,9,.59,13.44,1.78,4.44,1.18,8.29,2.89,11.55,5.11l-3.66,8.88c-3.33-2.22-6.85-3.83-10.55-4.83-3.7-1-7.29-1.5-10.77-1.5-4.37,0-7.96.55-10.77,1.67-2.81,1.11-4.87,2.59-6.16,4.44-1.3,1.85-1.94,3.92-1.94,6.22,0,2.74.87,4.92,2.61,6.55,1.74,1.63,4,2.92,6.77,3.89,2.78.96,5.83,1.83,9.16,2.61,3.33.78,6.68,1.65,10.05,2.61,3.37.96,6.44,2.22,9.22,3.78,2.78,1.55,5.01,3.63,6.72,6.22,1.7,2.59,2.55,5.92,2.55,9.99s-1.07,7.57-3.22,10.94c-2.15,3.37-5.46,6.07-9.94,8.11-4.48,2.04-10.12,3.05-16.93,3.05Z"/>
    <path d="m1404.33,1028.07v-77.73h34.87c8.96,0,15.84,1.8,20.65,5.39,4.81,3.59,7.22,8.5,7.22,14.71,0,4.22-.94,7.77-2.83,10.66s-4.42,5.11-7.61,6.66c-3.18,1.55-6.63,2.33-10.33,2.33l2-3.33c4.44,0,8.36.78,11.77,2.33,3.4,1.55,6.11,3.83,8.11,6.83,2,3,3,6.72,3,11.16,0,6.66-2.5,11.83-7.5,15.49-5,3.66-12.42,5.5-22.26,5.5h-37.09Zm11.1-8.99h25.54c6.14,0,10.84-1.04,14.1-3.11,3.26-2.07,4.89-5.33,4.89-9.77s-1.63-7.81-4.89-9.88c-3.26-2.07-7.96-3.11-14.1-3.11h-26.54v-8.99h23.76c5.62,0,9.99-1.04,13.1-3.11,3.11-2.07,4.66-5.18,4.66-9.33s-1.55-7.25-4.66-9.33c-3.11-2.07-7.48-3.11-13.1-3.11h-22.76v59.74Z"/>
    <path d="m1544.36,1028.07v-29.76l2.55,6.88-33.42-54.85h11.88l28.09,46.3h-6.44l28.2-46.3h10.99l-33.31,54.85,2.44-6.88v29.76h-10.99Z"/>
    <path d="m1705.03,1028.07v-77.73h32.76c8.29,0,15.6,1.63,21.93,4.89,6.33,3.26,11.25,7.81,14.77,13.66,3.51,5.85,5.27,12.62,5.27,20.32s-1.76,14.47-5.27,20.32c-3.52,5.85-8.44,10.4-14.77,13.66-6.33,3.26-13.64,4.89-21.93,4.89h-32.76Zm11.1-9.66h20.99c6.44,0,12.01-1.22,16.71-3.67,4.7-2.44,8.35-5.87,10.94-10.27,2.59-4.4,3.89-9.49,3.89-15.27s-1.3-10.96-3.89-15.32c-2.59-4.37-6.24-7.77-10.94-10.22-4.7-2.44-10.27-3.66-16.71-3.66h-20.99v58.41Z"/>
    <path d="m1846.72,1018.41h45.3v9.66h-56.41v-77.73h54.85v9.66h-43.75v58.41Zm-1-34.53h39.97v9.44h-39.97v-9.44Z"/>
    <path d="m1971.53,1028.96c-5.92,0-11.59-.91-16.99-2.72-5.4-1.81-9.66-4.16-12.77-7.05l4.11-8.66c2.96,2.59,6.74,4.74,11.33,6.44,4.59,1.7,9.36,2.55,14.32,2.55,4.51,0,8.18-.52,10.99-1.55,2.81-1.04,4.89-2.46,6.22-4.28,1.33-1.81,2-3.87,2-6.16,0-2.67-.87-4.81-2.61-6.44-1.74-1.63-4-2.94-6.77-3.94-2.78-1-5.83-1.87-9.16-2.61-3.33-.74-6.68-1.61-10.05-2.61-3.37-1-6.44-2.28-9.22-3.83-2.78-1.55-5.02-3.65-6.72-6.27-1.7-2.63-2.55-6.01-2.55-10.16s1.05-7.68,3.17-11.05c2.11-3.37,5.37-6.07,9.77-8.11,4.4-2.04,10.01-3.05,16.82-3.05,4.51,0,9,.59,13.44,1.78,4.44,1.18,8.29,2.89,11.55,5.11l-3.66,8.88c-3.33-2.22-6.85-3.83-10.55-4.83-3.7-1-7.29-1.5-10.77-1.5-4.37,0-7.96.55-10.77,1.67-2.81,1.11-4.87,2.59-6.16,4.44-1.3,1.85-1.94,3.92-1.94,6.22,0,2.74.87,4.92,2.61,6.55,1.74,1.63,4,2.92,6.77,3.89,2.78.96,5.83,1.83,9.16,2.61,3.33.78,6.68,1.65,10.05,2.61,3.37.96,6.44,2.22,9.22,3.78,2.78,1.55,5.01,3.63,6.72,6.22,1.7,2.59,2.55,5.92,2.55,9.99s-1.07,7.57-3.22,10.94c-2.15,3.37-5.46,6.07-9.94,8.11-4.48,2.04-10.12,3.05-16.93,3.05Z"/>
    <path d="m2056.7,1028.07v-77.73h11.1v77.73h-11.1Z"/>
    <path d="m2165.08,1028.96c-6,0-11.51-.98-16.55-2.94-5.04-1.96-9.4-4.74-13.1-8.33-3.7-3.59-6.59-7.79-8.66-12.6-2.07-4.81-3.11-10.11-3.11-15.88s1.04-11.07,3.11-15.88c2.07-4.81,4.98-9.01,8.72-12.6,3.74-3.59,8.12-6.37,13.16-8.33,5.03-1.96,10.58-2.94,16.66-2.94s11.77,1,16.88,3c5.11,2,9.44,5,12.99,8.99l-6.88,6.88c-3.18-3.11-6.64-5.39-10.38-6.83-3.74-1.44-7.79-2.17-12.16-2.17s-8.57.74-12.38,2.22c-3.81,1.48-7.11,3.55-9.88,6.22-2.78,2.67-4.92,5.83-6.44,9.49-1.52,3.66-2.28,7.64-2.28,11.94s.76,8.16,2.28,11.83c1.52,3.67,3.66,6.85,6.44,9.55,2.78,2.7,6.05,4.79,9.83,6.27,3.78,1.48,7.88,2.22,12.33,2.22,4.15,0,8.12-.65,11.94-1.94,3.81-1.29,7.35-3.46,10.6-6.5l6.33,8.44c-3.85,3.26-8.35,5.72-13.49,7.38-5.15,1.67-10.46,2.5-15.93,2.5Zm18.77-11.33v-28.87h10.66v30.31l-10.66-1.44Z"/>
    <path d="m2254.57,1028.07v-77.73h9.11l51.41,63.85h-4.77v-63.85h11.1v77.73h-9.11l-51.41-63.85h4.77v63.85h-11.1Z"/>
  </g>
  <g>
    <path class="cls-3" d="m1896.81,811.01c-49.53,0-92-16.69-126.25-49.6-.02-.02-.04-.04-.07-.06v40.53h-322.98v-82.16c-24.28,26.29-56.55,47.67-96.23,63.74-45.17,18.28-101.1,27.55-166.22,27.55-46.65,0-93.3-5.07-138.64-15.07-47.62-10.5-85.85-24.22-116.86-41.94l-44.62-25.5,5.27-12.66c-22.78,21.84-49.19,40.41-79.02,55.53-51.86,26.3-111.45,39.64-177.09,39.64s-125.2-13.37-176.8-39.73c-52.67-26.88-94.84-64.66-125.34-112.28-30.96-48.29-46.66-104.05-46.66-165.72s15.7-117.42,46.67-165.74c30.57-47.72,72.84-85.39,125.64-111.97,51.53-25.95,110.92-39.11,176.49-39.11s125,13.14,176.81,39.04c48.65,24.33,88.22,57.96,117.81,100.1,5.41-10.69,11.83-21,19.23-30.87,25.52-34.02,62.69-61.16,110.48-80.66,44.9-18.32,99.79-27.61,163.17-27.61,39.86,0,80.28,3.7,120.14,11,39.96,7.34,75.51,18.84,105.77,34.22V7.42h322.98v499.65c.32-.3.64-.6.97-.9,34.14-31.44,76.31-47.38,125.35-47.38s91.19,15.94,125.33,47.37c35.52,32.74,53.52,75.74,53.52,127.83s-17.7,93.9-52.62,127.44c-34.25,32.91-76.73,49.59-126.24,49.59ZM634.1,453.76c-6.02,0-9.24,1.52-11.14,2.66-2.67,1.6-5.07,4.54-7.34,9-1.71,3.35-4.59,11.44-4.59,27.86,0,12.09,1.74,22.03,5.02,28.74,1.55,3.17,4,7.29,6.89,9.03,1.92,1.15,5.15,2.67,11.17,2.67s9.25-1.53,11.17-2.68c2.88-1.73,5.33-5.85,6.87-9,3.3-6.73,5.04-16.67,5.04-28.76,0-16.43-2.88-24.52-4.6-27.88-2.27-4.44-4.67-7.38-7.34-8.98-1.9-1.14-5.13-2.66-11.14-2.66Zm792.27-28.77c7.52,5.42,14.57,11.4,21.14,17.9v-68.69l-21.14,50.8Z"/>
    <path d="m1835.8,771.27c-47.54,0-88.3-16.02-121.17-47.61-.02-.02-.04-.04-.06-.06v38.9h-310v-78.85c-23.3,25.23-54.27,45.76-92.36,61.18-43.36,17.55-97.03,26.45-159.53,26.45-44.78,0-89.55-4.87-133.06-14.47-45.71-10.08-82.39-23.25-112.16-40.25l-42.83-24.47,5.06-12.15c-21.86,20.96-47.21,38.78-75.84,53.29-49.78,25.25-106.96,38.05-169.97,38.05s-120.16-12.83-169.69-38.13c-50.55-25.8-91.03-62.06-120.3-107.77-29.71-46.35-44.78-99.87-44.78-159.06s15.07-112.69,44.79-159.07c29.34-45.8,69.91-81.95,120.59-107.47,49.46-24.91,106.46-37.54,169.4-37.54s119.97,12.61,169.7,37.47c46.7,23.35,84.68,55.63,113.08,96.08,5.19-10.26,11.35-20.15,18.46-29.63,24.49-32.66,60.17-58.7,106.04-77.41,43.09-17.59,95.78-26.5,156.6-26.5,38.26,0,77.05,3.55,115.31,10.56,38.36,7.04,72.47,18.08,101.51,32.85V0h310v479.55c.31-.29.62-.57.93-.86,32.77-30.18,73.24-45.48,120.31-45.48s87.52,15.3,120.29,45.47c34.09,31.42,51.37,72.69,51.37,122.69s-16.99,90.12-50.5,122.31c-32.88,31.58-73.64,47.6-121.16,47.6ZM623.87,428.38c-5.77,0-8.87,1.46-10.7,2.55-2.56,1.54-4.86,4.36-7.05,8.64-1.64,3.22-4.4,10.98-4.4,26.74,0,11.61,1.67,21.14,4.82,27.58,1.49,3.04,3.84,7,6.61,8.66,1.84,1.11,4.94,2.57,10.72,2.57s8.88-1.47,10.72-2.57c2.77-1.66,5.11-5.61,6.59-8.64,3.16-6.46,4.83-16,4.83-27.61,0-15.77-2.76-23.53-4.41-26.76-2.18-4.26-4.48-7.08-7.04-8.62-1.82-1.09-4.92-2.55-10.69-2.55Zm760.41-27.61c7.22,5.2,13.99,10.94,20.29,17.18v-65.93l-20.29,48.75Z"/>
    <path class="cls-1" d="m1943.11,492.78c-29.12-26.81-65.23-40.4-107.31-40.4s-78.21,13.59-107.32,40.41c-14.52,13.38-25.54,28.86-33.08,46.31V19.17h-271.66v218.39l-23.1-12.35c-28.37-15.17-62.35-26.45-101.03-33.55-37.12-6.8-74.75-10.25-111.85-10.25-58.33,0-108.58,8.44-149.37,25.08-42.61,17.38-75.57,41.33-97.95,71.17-14.34,19.12-24.3,39.85-29.82,61.96-3.76-7.46-7.85-14.76-12.35-21.86-27.2-42.98-65.31-76.93-113.27-100.91-47.04-23.52-101.25-35.45-161.13-35.45s-114.01,11.94-160.78,35.49c-47.56,23.95-85.61,57.82-113.07,100.69-27.71,43.24-41.76,93.28-41.76,148.73s14.05,105.51,41.76,148.72c27.42,42.81,65.4,76.81,112.88,101.04,46.8,23.91,100.96,36.03,160.97,36.03s114.24-12.11,161.3-35.98c47.89-24.27,85.94-58.34,113.09-101.25,23.62-37.32,37.16-79.7,40.42-126.24,6.54,8.43,13.81,16.09,21.83,22.9l-71.69,172.29,28.14,16.08c28.06,16.03,62.98,28.52,106.78,38.18,42.16,9.3,85.54,14.02,128.93,14.02,60.03,0,111.28-8.43,152.34-25.05,43.11-17.45,76.2-41.69,98.33-72.04,8.3-11.39,15.09-23.19,20.39-35.37v123.69h271.66v-80.04c7.44,17.31,18.27,32.88,32.51,46.55,29.18,28.04,65.48,42.26,107.89,42.26s78.7-14.22,107.88-42.25c29.6-28.43,44.61-64.93,44.61-108.49s-15.2-80.95-45.18-108.59Zm-1354.05-61.93c3.87-7.57,8.52-12.91,14.25-16.35,5.93-3.56,12.65-5.29,20.56-5.29s14.63,1.73,20.56,5.29c5.73,3.44,10.39,8.79,14.25,16.34,4.32,8.46,6.51,20.39,6.51,35.48s-2.28,26.84-6.78,36.03c-3.86,7.88-8.43,13.33-13.95,16.65-5.94,3.56-12.67,5.3-20.57,5.3s-14.63-1.73-20.57-5.29c-5.53-3.32-10.09-8.76-13.96-16.67-4.5-9.18-6.78-21.29-6.78-36.01s2.19-27.02,6.5-35.46Zm828.96,36.42c-12.88-23.07-30.26-41.76-51.68-55.53-1.93-1.24-3.89-2.46-5.86-3.64l63.26-152.02v222.81c-1.75-4.01-3.64-7.89-5.71-11.62Z"/>
    <g>
      <path class="cls-2" d="m768.57,249.71c-42.09-21.05-90.33-31.57-144.7-31.57s-102.47,10.52-144.26,31.57c-41.81,21.05-74.69,50.29-98.66,87.7-23.98,37.42-35.96,80.39-35.96,128.91s11.98,91.5,35.96,128.91c23.97,37.42,56.85,66.8,98.66,88.13,41.79,21.35,89.89,32.01,144.26,32.01s102.6-10.66,144.7-32.01c42.09-21.33,74.98-50.71,98.66-88.13,23.68-37.41,35.52-80.38,35.52-128.91s-11.84-91.49-35.52-128.91c-23.68-37.41-56.56-66.65-98.66-87.7Zm-77.17,268.79c-7.01,14.33-16.37,24.99-28.06,32.01-11.7,7.02-24.86,10.52-39.46,10.52s-27.77-3.51-39.46-10.52c-11.7-7.02-21.05-17.68-28.06-32.01-7.02-14.32-10.52-31.71-10.52-52.18s3.51-38.44,10.52-52.18c7.02-13.73,16.36-24.12,28.06-31.13,11.69-7.02,24.84-10.52,39.46-10.52s27.76,3.51,39.46,10.52c11.69,7.02,21.05,17.4,28.06,31.13,7.02,13.74,10.52,31.13,10.52,52.18s-3.51,37.86-10.52,52.18Z"/>
      <path class="cls-2" d="m1346.48,442.64c-16.37-10.52-34.35-18.55-53.93-24.12-19.59-5.55-39.17-9.65-58.76-12.28-19.59-2.63-37.57-4.82-53.93-6.58-16.38-1.75-29.53-4.39-39.46-7.89-9.95-3.51-14.91-8.77-14.91-15.78,0-5.84,4.52-11.1,13.59-15.79,9.06-4.67,26.16-7.02,51.3-7.02,20.46,0,42.53,2.49,66.21,7.45,23.68,4.97,47.79,14.18,72.35,27.62l54.37-130.67c-25.14-13.44-55.25-23.38-90.33-29.82-35.08-6.43-70.16-9.65-105.23-9.65-53.8,0-98.96,7.45-135.49,22.36-36.55,14.91-64.02,34.64-82.43,59.19-18.42,24.56-27.62,52.04-27.62,82.43,0,27.49,4.96,50.14,14.91,67.96,9.93,17.84,23.09,32.01,39.46,42.53,16.36,10.52,34.49,18.42,54.37,23.68,19.87,5.26,39.6,9.21,59.2,11.84,19.58,2.63,37.56,4.82,53.93,6.58,16.36,1.75,29.52,4.25,39.46,7.45,9.93,3.22,14.91,8.33,14.91,15.35s-4.25,12.58-12.72,16.66c-8.48,4.1-24.71,6.14-48.67,6.14-28.65,0-58.03-3.8-88.13-11.4-30.12-7.59-56.56-18.11-79.36-31.57l-54.37,130.67c24.56,14.03,56.7,25.43,96.46,34.2,39.75,8.77,80.09,13.15,121.02,13.15,55.54,0,101.73-7.45,138.56-22.36,36.83-14.91,64.31-34.78,82.43-59.63,18.11-24.84,27.19-51.59,27.19-80.24s-4.97-50.12-14.91-67.96c-9.95-17.83-23.1-32.01-39.46-42.53Z"/>
      <rect class="cls-2" x="1460.47" y="55.9" width="198.19" height="650.7"/>
      <path class="cls-2" d="m1918.23,519.81c-22.22-20.46-49.7-30.69-82.43-30.69s-60.22,10.24-82.43,30.69c-22.22,20.47-33.32,47.66-33.32,81.56s11.1,60.66,33.32,81.99c22.21,21.35,49.68,32.01,82.43,32.01s60.21-10.66,82.43-32.01c22.21-21.33,33.32-48.67,33.32-81.99s-11.11-61.09-33.32-81.56Z"/>
    </g>
  </g>
</svg>